<?xml version="1.0" standalone="no"?>
<!DOCTYPE svg PUBLIC "-//W3C//DTD SVG 20010904//EN"
 "http://www.w3.org/TR/2001/REC-SVG-20010904/DTD/svg10.dtd">
<svg version="1.0" xmlns="http://www.w3.org/2000/svg"
 width="1180.000000pt" height="1180.000000pt" viewBox="0 0 1180.000000 1180.000000"
 preserveAspectRatio="xMidYMid meet">
<metadata>
Created by potrace 1.14, written by Peter Selinger 2001-2017
</metadata>
<g transform="translate(0.000000,1180.000000) scale(0.100000,-0.100000)"
fill="#000000" stroke="none">
<path d="M5250 10322 l0 -719 -142 -96 c-79 -52 -231 -155 -338 -228 -305
-206 -561 -379 -1330 -899 -802 -542 -1015 -686 -1047 -709 l-22 -16 2 -1985
2 -1985 668 -1 667 -2 1 22 c0 11 1 756 2 1655 l2 1634 215 145 c118 79 352
237 520 350 168 113 414 279 547 369 133 90 245 163 248 163 3 0 5 -976 5
-2169 l0 -2168 2089 -1 2089 0 4 122 c4 136 20 182 81 223 90 61 539 126 874
127 103 1 115 -1 135 -21 l22 -22 -37 -35 c-21 -19 -84 -61 -140 -92 -243
-136 -280 -158 -328 -196 -88 -69 -109 -130 -69 -196 64 -105 293 -100 630 13
74 24 138 45 142 45 4 0 -1 -19 -12 -42 -11 -26 -15 -49 -11 -62 5 -13 84 -68
207 -143 330 -203 404 -235 544 -236 94 0 151 15 196 55 76 67 84 141 29 256
-59 124 -127 208 -218 271 -103 70 -195 98 -355 107 l-112 7 -77 -38 c-62 -31
-73 -40 -58 -45 11 -4 34 -3 50 2 46 15 96 10 119 -10 12 -10 33 -23 48 -29
30 -13 42 -6 77 44 12 18 27 33 32 33 41 0 -54 -105 -194 -214 -70 -54 -127
-105 -127 -113 0 -13 -3 -13 -15 -3 -21 18 -10 31 90 106 50 37 92 70 95 74 3
3 16 14 29 23 l25 16 -23 9 c-12 4 -50 7 -84 6 -43 -1 -67 3 -79 13 -28 25
-80 17 -199 -30 -199 -80 -429 -137 -550 -137 -74 0 -135 24 -154 60 -12 24
-12 30 5 57 25 42 118 106 293 202 232 127 277 164 277 226 0 32 -23 61 -68
85 -22 11 -240 15 -332 6 -19 -2 -72 -7 -117 -10 -45 -4 -90 -8 -100 -10 -10
-2 -40 -7 -68 -10 -87 -12 -118 -17 -190 -31 -38 -8 -86 -17 -105 -20 -48 -8
-160 -63 -168 -83 -4 -10 -9 934 -12 2097 l-5 2114 -390 261 c-827 554 -2348
1571 -2720 1820 -214 143 -391 264 -393 268 -2 5 -8 8 -12 8 -5 0 -39 21 -77
46 -248 169 -571 384 -578 384 -3 0 -5 -323 -5 -718z m648 155 c290 -195 937
-628 1437 -962 811 -543 1624 -1087 1665 -1115 8 -5 80 -53 160 -106 80 -53
147 -99 150 -101 10 -9 5 -4385 -5 -4392 -5 -4 -894 -7 -1975 -7 l-1965 1 -1
483 -1 482 31 1 c17 0 694 1 1504 1 l1472 0 -2 1486 -3 1485 -655 408 c-360
225 -668 417 -685 428 -16 10 -84 53 -150 94 -66 41 -256 159 -422 263 -166
104 -314 196 -328 204 -13 8 -191 118 -393 245 l-369 229 0 613 c0 337 2 613
4 613 2 0 241 -159 531 -353z m147 -1432 c363 -226 987 -616 1388 -866 746
-466 794 -496 813 -505 8 -3 11 -403 11 -1402 l0 -1397 -566 1 c-311 1 -569 2
-573 3 -5 0 -9 490 -10 1088 l-3 1088 -120 77 c-66 43 -142 91 -170 108 -60
36 -637 405 -713 455 -29 19 -56 35 -61 35 -5 0 -15 7 -22 16 -7 9 -22 20 -34
25 -11 4 -155 95 -320 201 l-300 193 -1 652 c-1 470 2 650 10 646 6 -4 308
-192 671 -418z m-795 -233 l0 -647 -677 -457 c-373 -251 -744 -500 -825 -555
l-147 -98 -1 -1630 0 -1630 -557 0 -558 0 0 1900 0 1900 125 85 c69 47 251
171 405 275 154 103 354 239 445 300 91 61 251 169 355 240 105 71 244 165
310 210 195 133 441 299 755 510 162 109 309 209 325 222 17 12 33 23 38 23 4
0 7 -291 7 -648z m465 -1006 c296 -189 479 -306 623 -397 31 -20 98 -63 149
-95 51 -33 184 -117 295 -188 112 -71 205 -133 208 -137 3 -4 5 -50 5 -101 -1
-104 -2 -105 -69 -59 -22 15 -365 234 -761 486 -396 252 -738 470 -761 486
l-41 28 0 100 c0 89 2 99 16 91 9 -5 160 -101 336 -214z m-30 -321 c165 -105
335 -213 377 -240 43 -28 96 -61 118 -75 21 -14 102 -65 180 -115 77 -49 152
-97 165 -105 41 -25 284 -181 380 -243 l89 -58 1 -87 c1 -48 0 -92 -2 -98 -3
-7 -228 131 -506 308 -276 176 -637 406 -802 511 -165 104 -305 196 -311 204
-15 18 -15 205 0 196 6 -4 146 -93 311 -198z m50 -370 c44 -28 84 -53 235
-150 19 -12 80 -50 135 -85 55 -35 129 -82 165 -106 116 -74 573 -365 634
-403 93 -57 92 -55 91 -153 -1 -48 -4 -90 -7 -93 -5 -6 -42 16 -173 100 -27
18 -210 135 -405 259 -195 124 -362 230 -370 236 -8 5 -163 104 -345 220
l-330 210 -2 87 c-1 49 0 93 2 100 4 11 87 -39 370 -222z m-156 -236 c238
-152 338 -216 472 -302 53 -34 287 -183 520 -332 l424 -270 0 -95 c-1 -68 -4
-94 -13 -93 -6 2 -127 76 -267 165 -140 90 -266 170 -280 178 -14 8 -219 139
-457 291 -238 152 -471 301 -518 330 -47 29 -88 57 -91 62 -7 10 -8 197 -1
197 2 0 97 -59 211 -131z m-37 -315 c84 -54 182 -116 218 -139 73 -48 669
-427 1010 -644 l225 -143 0 -94 c0 -52 -3 -95 -7 -97 -4 -1 -243 149 -532 333
-289 184 -544 346 -566 360 -22 14 -150 95 -283 180 l-243 155 -1 98 c-1 80 1
97 13 93 7 -3 82 -49 166 -102z m219 -477 c206 -131 532 -339 724 -462 193
-123 386 -246 430 -274 l81 -50 -2 -98 c-1 -54 -2 -99 -3 -100 -1 -1 -103 63
-228 144 -126 80 -246 157 -268 170 -22 13 -130 82 -240 154 -110 71 -209 134
-220 139 -11 5 -166 104 -345 219 l-325 209 -1 100 c0 75 3 99 11 94 7 -4 180
-114 386 -245z m14 -347 c204 -130 422 -269 485 -309 63 -40 255 -162 425
-270 305 -195 310 -199 311 -232 0 -55 0 -56 -95 -54 l-88 1 -329 211 c-181
115 -507 323 -725 462 l-395 251 -1 100 c-1 100 -1 100 20 88 12 -6 189 -118
392 -248z m-10 -330 c209 -134 403 -257 430 -275 28 -18 127 -81 220 -140 94
-59 173 -110 177 -114 4 -3 -63 -6 -150 -6 l-157 1 -70 45 c-38 25 -243 155
-455 289 -212 135 -388 248 -391 253 -12 16 -7 198 5 194 6 -3 182 -114 391
-247z m-204 -208 c101 -65 255 -163 341 -218 87 -54 158 -101 158 -104 0 -3
-69 -5 -152 -5 l-153 1 -85 54 c-138 88 -154 99 -167 110 -7 5 -14 10 -17 10
-3 0 -32 17 -64 38 l-58 38 -1 97 c0 53 3 97 7 97 4 0 90 -53 191 -118z m-88
-281 c37 -24 67 -44 67 -45 0 -1 -39 -1 -87 -1 l-88 0 -1 58 c-1 56 0 57 20
44 12 -8 51 -33 89 -56z m5857 -1222 c0 -10 5 -19 12 -21 6 -2 0 -15 -16 -31
-21 -21 -28 -24 -32 -12 -4 8 -15 15 -25 15 -17 0 -18 3 -9 21 7 11 9 26 7 33
-3 8 6 12 29 12 25 0 34 -4 34 -17z m-132 -131 c-1 -7 3 -23 10 -35 11 -19 10
-23 -2 -23 -8 0 -19 -8 -24 -17 -9 -16 -11 -16 -27 0 -9 10 -21 15 -26 12 -5
-4 -9 1 -9 9 0 9 5 16 11 16 6 0 8 9 4 21 -6 17 -4 20 12 15 10 -3 25 -1 33 4
20 13 21 12 18 -2z"/>
<path d="M415 2878 c-73 -13 -83 -16 -141 -45 -296 -144 -368 -557 -137 -791
103 -104 180 -141 318 -149 152 -9 269 33 366 132 44 45 118 153 107 156 -2 1
-52 2 -112 3 -107 2 -110 1 -140 -26 -112 -102 -286 -98 -393 10 -116 116
-115 321 3 437 107 104 284 109 386 9 l38 -36 101 -2 c55 0 106 2 111 5 14 9
-34 95 -87 155 -23 27 -67 63 -96 81 -87 52 -229 79 -324 61z"/>
<path d="M2427 2884 c-1 -1 -31 -4 -66 -8 -188 -17 -369 -186 -409 -381 -8
-40 -8 -171 1 -217 32 -170 172 -321 346 -372 79 -23 239 -16 311 15 77 32
145 83 190 143 32 44 70 107 70 119 0 1 -51 3 -112 2 -110 -1 -114 -2 -143
-29 -68 -65 -183 -88 -280 -58 -73 23 -155 108 -179 186 -65 207 85 416 289
402 64 -4 134 -35 174 -76 l30 -32 113 -1 c126 0 124 -2 83 69 -57 98 -146
174 -245 209 -39 14 -165 35 -173 29z"/>
<path d="M5715 2883 c-132 -12 -232 -59 -319 -147 -95 -98 -136 -192 -141
-326 -7 -156 39 -274 147 -382 95 -95 211 -140 348 -137 132 4 238 46 320 128
40 40 110 142 110 161 0 3 -51 5 -112 5 -110 0 -114 -1 -141 -28 -62 -64 -186
-89 -282 -59 -72 23 -158 110 -179 182 -37 125 -12 235 75 322 66 67 137 94
221 85 55 -6 156 -51 165 -73 13 -35 54 -41 236 -35 l28 1 -17 33 c-74 145
-211 247 -357 263 -29 3 -56 6 -62 7 -5 2 -23 1 -40 0z"/>
<path d="M7215 2874 c-89 -13 -139 -32 -203 -76 -261 -180 -289 -560 -56 -777
103 -97 222 -139 367 -129 202 15 359 138 434 342 21 57 26 209 8 275 -32 122
-106 226 -208 292 -107 69 -214 92 -342 73z m190 -213 c60 -26 107 -70 143
-131 24 -40 27 -55 27 -140 -1 -80 -4 -102 -24 -139 -75 -142 -236 -203 -371
-139 -193 91 -244 334 -102 481 87 91 216 117 327 68z"/>
<path d="M8080 2876 c-131 -27 -202 -119 -215 -280 -3 -35 16 -118 33 -145 36
-56 103 -98 233 -145 78 -28 109 -66 109 -133 0 -84 -82 -133 -165 -99 -38 16
-65 62 -65 110 0 25 -1 25 -82 24 -46 0 -86 -5 -89 -10 -8 -12 8 -98 27 -143
20 -49 80 -112 128 -137 56 -29 157 -35 229 -14 116 34 199 156 199 296 1 100
-16 148 -72 202 -42 40 -63 51 -151 79 -127 41 -163 69 -162 126 0 22 6 50 13
62 14 28 65 50 100 45 32 -6 80 -57 80 -87 0 -23 3 -23 83 -22 l82 1 0 39 c1
52 -43 143 -86 179 -38 32 -70 46 -119 53 -19 2 -39 5 -45 7 -5 2 -35 -2 -65
-8z"/>
<path d="M10570 2879 c-95 -14 -165 -64 -201 -144 -31 -69 -40 -169 -20 -234
23 -76 105 -146 211 -178 66 -20 125 -55 139 -82 10 -18 15 -58 12 -93 0 -9
-12 -30 -26 -46 -50 -60 -157 -48 -187 21 -13 32 -15 39 -17 69 -1 14 -14 16
-87 16 l-87 0 6 -53 c15 -149 114 -250 254 -262 104 -8 172 14 238 80 65 66
88 129 89 242 0 152 -62 222 -248 276 -102 30 -136 60 -136 122 0 46 32 96 65
98 56 5 70 1 98 -27 14 -14 27 -37 29 -52 3 -26 4 -26 86 -27 l82 -1 0 26 c0
81 -63 190 -130 225 -39 20 -119 32 -170 24z"/>
<path d="M4332 2865 c-109 -34 -187 -134 -199 -256 l-5 -59 96 0 96 0 0 31 c0
40 27 97 53 111 81 43 176 -8 184 -99 6 -76 -56 -149 -381 -446 l-60 -55 -1
-91 c-1 -76 1 -91 14 -92 19 -1 544 0 587 0 l30 1 0 79 c-1 44 -4 83 -9 87 -4
4 -90 7 -192 7 -102 0 -185 3 -185 7 0 7 13 19 135 129 214 192 250 246 250
371 -1 57 -6 86 -24 122 -30 64 -106 130 -171 151 -62 20 -158 21 -218 2z"/>
<path d="M1070 2860 l-25 -5 0 -472 0 -473 35 -1 c39 -1 354 -1 413 0 l37 1 0
84 0 83 -127 1 c-71 0 -138 0 -149 1 l-22 1 0 368 c-1 202 -1 378 -1 392 -1
24 -3 25 -69 25 -37 0 -79 -2 -92 -5z"/>
<path d="M1641 2855 c-4 -5 -7 -221 -7 -479 l1 -469 65 1 c36 0 79 1 95 1 l30
1 0 475 1 475 -31 1 c-112 4 -148 3 -154 -6z"/>
<path d="M3013 2862 c-21 -3 -23 -9 -24 -65 0 -34 -1 -248 -2 -474 l-2 -413
23 -1 c29 -1 149 -1 161 0 5 1 8 102 8 236 -1 129 -1 235 -1 235 1 0 66 -106
144 -235 79 -129 149 -235 157 -236 93 -4 193 -2 193 3 0 4 -67 113 -150 242
l-149 235 99 153 c151 233 189 293 195 309 5 13 -42 16 -181 10 -17 -1 -51
-50 -159 -231 -76 -127 -141 -228 -143 -225 -3 3 -5 106 -4 230 0 124 -2 225
-6 226 -31 3 -142 3 -159 1z"/>
<path d="M6325 2862 l-30 -3 1 -470 c0 -258 4 -472 7 -476 5 -4 385 -8 472 -3
7 0 11 32 10 83 l0 82 -120 2 c-66 1 -134 2 -150 2 l-30 1 0 390 c0 215 -2
390 -5 391 -17 3 -130 4 -155 1z"/>
<path d="M8552 2859 c-16 -6 -17 -42 -17 -478 -1 -318 3 -471 10 -472 19 -1
410 -1 460 0 l50 1 -2 42 c-1 24 -2 62 -2 84 l-1 41 -162 0 -163 1 -2 116 -2
116 164 0 164 0 3 38 c2 20 1 58 0 85 l-4 47 -162 0 -162 0 -1 105 0 105 163
0 c149 0 164 2 165 18 2 41 -3 147 -7 151 -6 7 -473 7 -492 0z"/>
<path d="M9612 2859 c-17 -6 -18 -32 -17 -360 1 -195 5 -370 9 -389 21 -93
109 -185 201 -209 51 -14 144 -14 199 0 66 16 136 75 171 144 l30 59 3 378 c3
359 2 378 -15 379 -19 1 -140 1 -159 0 -9 -1 -12 -84 -12 -306 0 -375 -7 -426
-64 -456 -34 -18 -94 -15 -119 7 -49 44 -52 66 -55 417 -1 181 -4 331 -7 334
-8 8 -145 9 -165 2z"/>
<path d="M11293 2862 c-12 -2 -23 -9 -26 -15 -3 -7 -64 -165 -137 -352 -72
-187 -152 -391 -176 -454 -25 -62 -43 -118 -41 -124 4 -12 176 -13 187 0 4 4
22 49 41 99 l34 92 165 0 c91 0 171 -2 177 -6 6 -4 25 -45 43 -92 18 -47 36
-89 40 -94 9 -9 200 -15 200 -6 0 2 -82 218 -182 480 l-181 475 -61 0 c-34 0
-71 -1 -83 -3z m87 -357 c21 -47 79 -209 76 -213 -6 -5 -207 -5 -212 1 -3 3
-1 13 5 24 5 10 26 61 45 113 19 52 40 109 46 125 l12 30 10 -30 c5 -16 13
-39 18 -50z"/>
<path d="M2024 1622 c-69 -35 -104 -98 -105 -184 -1 -66 12 -99 52 -137 27
-26 121 -71 148 -71 4 0 20 -11 35 -25 50 -46 27 -128 -39 -141 -47 -8 -80 14
-92 63 -8 37 -9 37 -58 39 -72 1 -73 0 -64 -51 20 -109 95 -175 198 -175 123
0 199 77 209 210 8 116 -33 169 -162 210 -82 27 -106 48 -106 93 0 82 117 93
131 13 3 -16 14 -20 62 -22 l57 -3 0 36 c0 50 -37 111 -87 140 -48 28 -130 30
-179 5z"/>
<path d="M4660 1626 c-69 -21 -96 -54 -103 -122 -2 -21 -9 -40 -16 -40 -6 -1
-19 -2 -28 -3 -14 -1 -18 -9 -16 -38 1 -21 2 -46 2 -56 1 -11 8 -18 19 -16 9
1 22 1 28 0 8 -1 12 -55 12 -183 0 -101 0 -191 1 -201 1 -16 9 -18 59 -15 l57
3 0 197 c0 109 3 199 8 199 4 1 22 2 40 3 31 1 32 2 35 54 3 55 3 56 -50 52
-22 -1 -28 3 -28 18 0 24 16 37 53 46 27 6 28 9 25 59 -3 50 -4 52 -33 53 -16
0 -46 -4 -65 -10z"/>
<path d="M2389 1625 c0 -3 -1 -21 -1 -40 0 -79 -3 -75 57 -75 30 0 56 3 56 8
4 25 5 89 1 100 -4 11 -111 19 -113 7z"/>
<path d="M4097 1623 c-4 -3 -7 -156 -7 -339 l0 -332 60 -1 60 -1 0 340 0 340
-53 0 c-30 0 -57 -3 -60 -7z"/>
<path d="M4315 1573 l0 -58 57 -3 56 -3 3 44 c6 74 4 77 -60 77 l-57 0 1 -57z"/>
<path d="M4818 1623 c-2 -5 -4 -30 -3 -58 l0 -50 57 -3 c55 -3 57 -2 60 25 2
15 1 43 -1 61 -3 32 -4 32 -57 32 -29 0 -54 -3 -56 -7z"/>
<path d="M6002 1558 c0 -40 -1 -85 -1 -101 l-1 -27 -42 21 c-90 46 -223 23
-297 -52 -81 -81 -101 -217 -46 -319 68 -124 216 -175 337 -116 43 21 47 21
51 5 4 -13 16 -17 61 -18 l56 0 0 339 0 340 -59 0 -59 0 0 -72z m-83 -217 c34
-19 68 -68 75 -111 13 -85 -53 -170 -134 -170 -128 0 -197 151 -112 247 39 45
119 61 171 34z"/>
<path d="M6497 1623 c-2 -5 -3 -156 -3 -338 l1 -330 170 0 170 0 3 58 2 57
-67 1 c-38 1 -85 1 -105 0 l-38 -1 0 280 0 280 -64 0 c-36 0 -67 -3 -69 -7z"/>
<path d="M8409 1608 c0 -13 -1 -58 -1 -100 -1 -79 -6 -90 -28 -63 -7 9 -15 13
-18 10 -3 -3 -11 0 -19 6 -7 6 -46 12 -86 12 -55 0 -83 -5 -119 -22 -129 -62
-186 -227 -123 -356 30 -63 49 -85 105 -121 40 -25 54 -29 125 -29 64 0 89 5
123 23 39 20 43 20 40 5 -3 -15 6 -18 59 -21 l63 -3 -1 341 0 340 -60 0 c-54
0 -59 -2 -60 -22z m-109 -257 c9 -1 31 -13 49 -29 44 -37 64 -110 45 -165 -16
-44 -28 -58 -71 -81 -89 -46 -200 19 -207 122 -3 39 21 99 48 121 21 18 86 39
105 36 9 -2 23 -4 31 -4z"/>
<path d="M8627 1623 c-3 -5 -5 -32 -4 -60 l0 -53 58 0 59 0 0 60 0 60 -54 0
c-30 0 -57 -3 -59 -7z"/>
<path d="M3153 1467 c-27 -5 -56 -21 -79 -43 l-37 -34 -23 26 c-56 59 -182 74
-248 29 -43 -29 -47 -30 -40 -10 8 19 -12 27 -71 28 l-45 2 -1 -40 c0 -46 0
-456 0 -468 1 -4 27 -7 58 -5 l57 3 2 155 c1 123 4 162 18 187 37 73 137 78
173 9 16 -29 18 -65 22 -323 l1 -33 58 0 59 0 1 154 c1 172 12 215 59 239 31
15 71 14 102 -2 32 -18 44 -77 47 -231 1 -80 2 -148 3 -152 1 -5 26 -8 56 -8
45 0 55 3 56 18 4 74 0 326 -5 357 -20 104 -114 165 -223 142z"/>
<path d="M3695 1470 c-16 -3 -44 -14 -62 -23 -36 -19 -44 -21 -42 -9 4 25 -21
31 -106 23 -6 -1 -10 -120 -10 -336 l-1 -335 61 0 61 0 -1 95 c-1 52 2 95 5
95 4 0 22 -8 41 -17 19 -9 59 -19 91 -21 155 -11 279 106 279 264 0 145 -101
258 -239 268 -26 2 -60 0 -77 -4z m132 -143 c125 -84 40 -290 -109 -263 -143
26 -161 233 -24 280 49 17 91 11 133 -17z"/>
<path d="M5189 1464 c-59 -18 -131 -81 -159 -141 -30 -64 -31 -160 -2 -225 67
-150 252 -203 393 -113 37 24 102 111 94 126 -3 4 -31 8 -63 8 -46 0 -62 -5
-82 -24 -49 -47 -124 -53 -184 -16 -29 19 -56 57 -56 81 0 6 82 10 204 10
l205 0 -4 54 c-4 73 -33 133 -85 179 -75 69 -166 90 -261 61z m123 -105 c35
-9 88 -58 88 -82 0 -9 -37 -12 -130 -12 -89 0 -130 4 -130 11 0 19 38 60 70
76 36 18 54 19 102 7z"/>
<path d="M7047 1466 c-86 -31 -143 -88 -171 -170 -56 -165 52 -338 221 -353
102 -9 178 24 240 105 47 62 44 70 -29 71 -47 0 -65 -3 -77 -18 -53 -60 -165
-60 -216 1 -14 16 -25 38 -25 49 0 18 9 19 200 19 l200 0 0 43 c0 98 -49 180
-137 229 -62 35 -148 45 -206 24z m140 -115 c25 -12 48 -32 57 -50 9 -16 16
-31 16 -33 0 -2 -61 -3 -135 -3 -74 0 -135 1 -135 3 0 21 38 64 72 81 52 26
71 26 125 2z"/>
<path d="M7674 1468 c-23 -5 -54 -20 -68 -33 l-26 -24 0 24 c0 24 -5 27 -50
27 -11 0 -31 0 -44 -1 l-24 -1 0 -254 0 -254 58 -1 58 0 4 162 c2 106 8 171
17 188 41 81 168 65 185 -25 3 -17 6 -98 7 -178 l0 -146 60 0 59 1 1 81 c3
201 -1 288 -16 324 -38 89 -121 130 -221 110z"/>
<path d="M9547 1465 c-101 -26 -176 -119 -181 -226 -5 -91 17 -153 75 -211 89
-89 227 -100 329 -28 l28 20 -8 -33 c-28 -127 -164 -173 -255 -87 -25 25 -38
29 -82 29 -29 -1 -53 -5 -53 -9 0 -42 68 -120 127 -146 61 -26 178 -23 238 8
58 28 109 90 126 151 14 49 20 527 7 528 -37 3 -87 1 -96 -5 -6 -3 -9 -15 -7
-26 4 -18 2 -18 -33 4 -65 41 -138 51 -215 31z m167 -124 c67 -42 88 -141 44
-208 -67 -101 -210 -88 -259 23 -60 135 88 263 215 185z"/>
<path d="M2413 1462 c-13 -2 -23 -9 -24 -15 0 -14 0 -452 1 -480 0 -14 8 -18
43 -16 79 3 73 -19 73 259 0 218 -2 250 -16 251 -8 0 -24 2 -35 3 -11 1 -30 0
-42 -2z"/>
<path d="M4333 1460 c-17 -5 -18 -21 -18 -255 l0 -250 58 -2 57 -3 1 43 c0 57
0 427 0 452 -1 17 -8 20 -40 20 -22 0 -48 -2 -58 -5z"/>
<path d="M4817 1455 c-2 -5 -3 -120 -3 -255 l1 -245 58 -3 c56 -3 57 -3 58 25
3 155 0 475 -5 480 -10 10 -106 9 -109 -2z"/>
<path d="M8650 1460 l-25 -6 -1 -252 -2 -252 59 0 59 0 0 255 c0 197 -3 255
-12 256 -7 0 -22 2 -33 3 -11 1 -31 -1 -45 -4z"/>
<path d="M8845 1460 c-1 -3 -2 -118 -2 -256 l0 -251 59 -2 58 -2 1 138 c2 169
3 185 25 223 43 71 163 51 178 -30 2 -14 5 -93 5 -176 l1 -151 60 -2 60 -2 1
48 c4 220 -2 337 -20 372 -37 71 -88 101 -173 101 -49 0 -118 -24 -118 -41 0
-5 -5 -9 -11 -9 -6 0 -9 9 -6 20 4 14 0 20 -11 21 -10 0 -37 1 -60 2 -24 1
-45 0 -47 -3z"/>
<path d="M2 1197 l3 -40 850 0 850 0 5 40 6 40 -859 0 -858 0 3 -40z"/>
<path d="M10090 1199 c0 -24 5 -39 13 -40 6 0 390 -1 852 -2 l840 0 0 39 0 39
-852 1 -853 2 0 -39z"/>
</g>
</svg>
